<svg width="43" height="44" viewBox="0 0 43 44" fill="none" xmlns="http://www.w3.org/2000/svg">
<path d="M42.5862 1.98509C42.5779 0.880548 41.6759 -0.00819177 40.5713 3.10874e-05L22.5718 0.13403C21.4673 0.142253 20.5785 1.04432 20.5868 2.14886C20.595 3.2534 21.4971 4.14214 22.6016 4.13392L38.6012 4.01481L38.7203 20.0144C38.7285 21.1189 39.6306 22.0076 40.7351 21.9994C41.8396 21.9912 42.7284 21.0891 42.7202 19.9846L42.5862 1.98509ZM14.4247 31.4036L42.0109 3.40362L39.1615 0.596329L11.5753 28.5964L14.4247 31.4036Z" fill="black"/>
<path d="M31.7931 20.8568L31.7931 38.0002C31.7931 40.2094 30.0022 42.0002 27.7931 42.0002L6 42.0002C3.79086 42.0002 2 40.2094 2 38.0002L2 16.2071C2 13.998 3.79086 12.2071 6 12.2071L21.1527 12.2071" stroke="#222222" stroke-width="4" stroke-linecap="round"/>
</svg>
